# xmcd
#
# Track frame offsets: 
#        150
#        21995
#        47390
#        73700
#        95389
#        117767
#        141651
#        171335
#        191066
#        214017
#        245499
#        261760
#        284767
#        312986
#
# Disc length: 4393 seconds
#
# Revision: 0
# Processed by: cddbd v1.5.2PL0 Copyright (c) Steve Scherf et al.
# Submitted via: ExactAudioCopyFreeDBPlugin 1.0
#
DISCID=d911270e
DTITLE=Elevation Worship - For The Honor
DYEAR=2011
DGENRE=Christian Rock
TTITLE0=Exalted One
TTITLE1=The Lord Is My Rock - God You Lifted Me Out
TTITLE2=For The Honor
TTITLE3=God Be Praised
TTITLE4=The Church
TTITLE5=The Highest
TTITLE6=Victorious
TTITLE7=We Rejoice
TTITLE8=Give Me Faith
TTITLE9=All Things New
TTITLE10=The Gospel
TTITLE11=You Reign Alone
TTITLE12=Give My Life To You
TTITLE13=Our King Has Come
EXTD=
EXTT0=
EXTT1=
EXTT2=
EXTT3=
EXTT4=
EXTT5=
EXTT6=
EXTT7=
EXTT8=
EXTT9=
EXTT10=
EXTT11=
EXTT12=
EXTT13=
PLAYORDER=
